<svg width="562" height="75" viewBox="0 0 562 75" fill="none" xmlns="http://www.w3.org/2000/svg">
<path d="M16.075 13.2V31.85H40.275V43.2H16.075V62.25H47.175V74H0.975001V1.45H47.175V13.2H16.075ZM138.197 15.35C137.73 16.1167 137.247 16.6833 136.747 17.05C136.28 17.3833 135.664 17.55 134.897 17.55C134.164 17.55 133.364 17.3 132.497 16.8C131.664 16.2667 130.68 15.7 129.547 15.1C128.414 14.5 127.114 13.95 125.647 13.45C124.18 12.9167 122.464 12.65 120.497 12.65C117.03 12.65 114.43 13.4333 112.697 15C110.964 16.5333 110.097 18.55 110.097 21.05C110.097 22.65 110.564 23.9833 111.497 25.05C112.464 26.0833 113.714 26.9833 115.247 27.75C116.814 28.5167 118.58 29.2 120.547 29.8C122.514 30.4 124.53 31.0667 126.597 31.8C128.664 32.5 130.68 33.3333 132.647 34.3C134.614 35.2667 136.364 36.4833 137.897 37.95C139.464 39.4167 140.714 41.2167 141.647 43.35C142.614 45.45 143.097 48.0167 143.097 51.05C143.097 54.35 142.514 57.45 141.347 60.35C140.214 63.2167 138.564 65.7333 136.397 67.9C134.23 70.0333 131.547 71.7167 128.347 72.95C125.18 74.1833 121.58 74.8 117.547 74.8C115.247 74.8 112.947 74.5667 110.647 74.1C108.38 73.6333 106.18 72.9833 104.047 72.15C101.947 71.3167 99.9635 70.3167 98.0969 69.15C96.2302 67.9833 94.5969 66.6833 93.1969 65.25L97.5969 58.15C97.9635 57.6167 98.4469 57.1833 99.0469 56.85C99.6469 56.4833 100.28 56.3 100.947 56.3C101.847 56.3 102.797 56.6333 103.797 57.3C104.797 57.9667 105.947 58.7 107.247 59.5C108.547 60.3 110.047 61.0333 111.747 61.7C113.48 62.3667 115.547 62.7 117.947 62.7C121.447 62.7 124.147 61.9 126.047 60.3C127.98 58.7 128.947 56.3167 128.947 53.15C128.947 51.3167 128.464 49.8333 127.497 48.7C126.564 47.5667 125.33 46.6167 123.797 45.85C122.264 45.0833 120.514 44.4333 118.547 43.9C116.58 43.3333 114.564 42.7167 112.497 42.05C110.43 41.3833 108.414 40.5833 106.447 39.65C104.48 38.7167 102.73 37.4833 101.197 35.95C99.6635 34.4167 98.4135 32.5167 97.4469 30.25C96.5135 27.9833 96.0469 25.1667 96.0469 21.8C96.0469 19.1 96.5802 16.4833 97.6469 13.95C98.7135 11.4167 100.28 9.16666 102.347 7.2C104.414 5.23333 106.947 3.64999 109.947 2.44999C112.98 1.24999 116.447 0.649994 120.347 0.649994C124.714 0.649994 128.747 1.33333 132.447 2.69999C136.18 4.03333 139.33 5.9 141.897 8.3L138.197 15.35ZM243.875 56.15C244.708 56.15 245.408 56.45 245.975 57.05L251.925 63.4C248.992 67.1333 245.342 69.9667 240.975 71.9C236.642 73.8333 231.475 74.8 225.475 74.8C220.042 74.8 215.158 73.8833 210.825 72.05C206.492 70.1833 202.808 67.6 199.775 64.3C196.742 61 194.408 57.0833 192.775 52.55C191.142 48.0167 190.325 43.0667 190.325 37.7C190.325 34.1 190.708 30.6833 191.475 27.45C192.275 24.1833 193.425 21.1833 194.925 18.45C196.425 15.7167 198.225 13.25 200.325 11.05C202.458 8.85 204.858 6.98333 207.525 5.45C210.192 3.88333 213.092 2.7 216.225 1.9C219.392 1.06666 222.758 0.649994 226.325 0.649994C228.992 0.649994 231.508 0.883328 233.875 1.35C236.275 1.81667 238.508 2.46667 240.575 3.3C242.642 4.13333 244.542 5.15 246.275 6.35C248.042 7.51666 249.625 8.8 251.025 10.2L245.975 17.1C245.675 17.5333 245.292 17.9167 244.825 18.25C244.358 18.5833 243.725 18.75 242.925 18.75C242.125 18.75 241.308 18.4667 240.475 17.9C239.675 17.3333 238.675 16.7 237.475 16C236.308 15.3 234.825 14.6667 233.025 14.1C231.258 13.5333 229.008 13.25 226.275 13.25C223.242 13.25 220.458 13.8 217.925 14.9C215.392 16 213.208 17.6 211.375 19.7C209.575 21.7667 208.175 24.3167 207.175 27.35C206.175 30.3833 205.675 33.8333 205.675 37.7C205.675 41.6 206.208 45.0833 207.275 48.15C208.375 51.1833 209.858 53.75 211.725 55.85C213.625 57.95 215.825 59.55 218.325 60.65C220.858 61.7167 223.558 62.25 226.425 62.25C228.125 62.25 229.658 62.1667 231.025 62C232.425 61.8333 233.708 61.55 234.875 61.15C236.075 60.75 237.192 60.2333 238.225 59.6C239.292 58.9667 240.358 58.1667 241.425 57.2C241.792 56.9 242.175 56.65 242.575 56.45C242.975 56.25 243.408 56.15 243.875 56.15ZM339.193 46.45L331.343 24.25C330.876 23.0833 330.376 21.7167 329.843 20.15C329.343 18.5833 328.86 16.8833 328.393 15.05C327.926 16.9167 327.426 18.65 326.893 20.25C326.393 21.8167 325.91 23.1833 325.443 24.35L317.643 46.45H339.193ZM364.393 74H352.743C351.443 74 350.376 73.7 349.543 73.1C348.743 72.4667 348.143 71.6667 347.743 70.7L342.843 56.85H313.943L309.043 70.7C308.71 71.5333 308.126 72.3 307.293 73C306.46 73.6667 305.41 74 304.143 74H292.393L320.743 1.45H336.093L364.393 74ZM436.108 37.55C440.808 37.55 444.241 36.4167 446.408 34.15C448.608 31.8833 449.708 28.7833 449.708 24.85C449.708 23.05 449.424 21.4167 448.858 19.95C448.324 18.45 447.491 17.1833 446.358 16.15C445.258 15.0833 443.858 14.2667 442.158 13.7C440.458 13.1333 438.441 12.85 436.108 12.85H426.608V37.55H436.108ZM436.108 1.45C441.074 1.45 445.358 2.03333 448.958 3.2C452.591 4.36667 455.574 6 457.908 8.1C460.241 10.1667 461.958 12.6333 463.058 15.5C464.191 18.3667 464.758 21.4833 464.758 24.85C464.758 28.4167 464.174 31.6833 463.008 34.65C461.841 37.6167 460.074 40.1667 457.708 42.3C455.341 44.4333 452.358 46.1 448.758 47.3C445.158 48.4667 440.941 49.05 436.108 49.05H426.608V74H411.608V1.45H436.108ZM529.903 13.2V31.85H554.103V43.2H529.903V62.25H561.003V74H514.803V1.45H561.003V13.2H529.903Z" fill="#4F7752"/>
</svg>
