<svg width="24" height="24" viewBox="0 0 24 24" fill="none" xmlns="http://www.w3.org/2000/svg">
<path d="M11.1511 17.2059H13.012V11H11.1511V17.2059ZM11.9979 9.09941C12.2839 9.09941 12.5231 9.00658 12.7154 8.82091C12.9077 8.63524 13.0038 8.40328 13.0038 8.12501C13.0038 7.80933 12.9086 7.5582 12.7183 7.37164C12.5279 7.18509 12.2901 7.09181 12.0048 7.09181C11.6964 7.09181 11.4511 7.18363 11.2692 7.36726C11.0872 7.55089 10.9962 7.79539 10.9962 8.10074C10.9962 8.39192 11.0917 8.63116 11.2826 8.81846C11.4734 9.00576 11.7119 9.09941 11.9979 9.09941ZM11.996 22.4299C10.5596 22.4299 9.20831 22.1555 7.94228 21.6069C6.67625 21.0582 5.57205 20.3127 4.62968 19.3703C3.68731 18.4279 2.9418 17.3223 2.39313 16.0534C1.84446 14.7845 1.57013 13.4294 1.57013 11.9883C1.57013 10.5489 1.84495 9.19626 2.3946 7.93036C2.94425 6.66446 3.69266 5.55801 4.63983 4.61101C5.587 3.664 6.69185 2.91942 7.95438 2.37729C9.2169 1.83515 10.5655 1.56409 12.0001 1.56409C13.4408 1.56409 14.7969 1.83497 16.0686 2.37674C17.3402 2.91849 18.4475 3.66265 19.3905 4.60924C20.3335 5.55582 21.0768 6.66494 21.6204 7.93659C22.1641 9.20822 22.4359 10.565 22.4359 12.0069C22.4359 13.4485 22.1648 14.7978 21.6227 16.0547C21.0805 17.3117 20.336 18.4121 19.389 19.3559C18.442 20.2998 17.3332 21.048 16.0628 21.6008C14.7923 22.1535 13.4367 22.4299 11.996 22.4299ZM12.0111 20.4972C14.355 20.4972 16.3553 19.6664 18.0121 18.0047C19.6689 16.343 20.4973 14.3377 20.4973 11.9888C20.4973 9.64495 19.6709 7.64463 18.0182 5.98786C16.3654 4.33108 14.3588 3.50269 11.9984 3.50269C9.66085 3.50269 7.66052 4.32905 5.99741 5.98179C4.33429 7.63454 3.50273 9.64114 3.50273 12.0016C3.50273 14.3391 4.33358 16.3394 5.99528 18.0026C7.65696 19.6657 9.66225 20.4972 12.0111 20.4972Z" fill="#766C46"/>
</svg>
