<svg width="31" height="31" viewBox="0 0 31 31" fill="none" xmlns="http://www.w3.org/2000/svg">
<path d="M15.5 26.817L14.2158 25.6246C11.9057 23.4868 10.0071 21.6623 8.52006 20.1512C7.03299 18.6401 5.85725 17.3054 4.99285 16.1471C4.12842 14.9887 3.53226 13.9413 3.20437 13.0049C2.8765 12.0684 2.71257 11.1274 2.71257 10.1818C2.71257 8.30231 3.35839 6.71672 4.65004 5.42505C5.9417 4.13338 7.53144 3.48755 9.41926 3.48755C10.5569 3.48755 11.6503 3.77445 12.6993 4.34825C13.7484 4.92205 14.6819 5.76537 15.5 6.87821C16.3926 5.73889 17.3493 4.88895 18.3702 4.32839C19.3911 3.76783 20.4613 3.48755 21.5808 3.48755C23.4686 3.48755 25.0583 4.13338 26.35 5.42505C27.6416 6.71672 28.2875 8.30231 28.2875 10.1818C28.2875 11.1274 28.1235 12.0684 27.7956 13.0049C27.4677 13.9413 26.8716 14.9887 26.0072 16.1471C25.1428 17.3054 23.967 18.6401 22.4799 20.1512C20.9929 21.6623 19.0943 23.4868 16.7842 25.6246L15.5 26.817Z" fill="#766C46"/>
</svg>
