<svg width="294" height="16" viewBox="0 0 294 16" fill="none" xmlns="http://www.w3.org/2000/svg">
<path d="M0.64 0.739999C1.68 0.659999 2.74 0.619999 3.82 0.619999C4.91333 0.619999 5.85333 0.886666 6.64 1.42C7.44 1.95333 7.84 2.72667 7.84 3.74C7.84 4.5 7.62667 5.20667 7.2 5.86C6.78667 6.51333 6.28667 7.00667 5.7 7.34C6.64667 7.63333 7.44 8.14 8.08 8.86C8.72 9.58 9.04 10.3867 9.04 11.28C9.04 12.5333 8.64 13.4867 7.84 14.14C7.05333 14.7933 5.96667 15.12 4.58 15.12C3.20667 15.12 1.89333 15.0667 0.64 14.96V0.739999ZM4.7 14.26C5.67333 14.26 6.47333 13.9933 7.1 13.46C7.72667 12.9133 8.04 12.22 8.04 11.38C8.04 10.54 7.73333 9.81333 7.12 9.2C6.52 8.58667 5.69333 8.16667 4.64 7.94C4.14667 7.83333 3.57333 7.78 2.92 7.78C2.28 7.78 1.84 7.78 1.6 7.78V14.16C2.18667 14.2267 3.22 14.26 4.7 14.26ZM6.88 3.72C6.88 2.98667 6.57333 2.42 5.96 2.02C5.36 1.62 4.68 1.42 3.92 1.42C3.17333 1.42 2.4 1.44667 1.6 1.5V6.96C1.77333 6.96 2.1 6.96 2.58 6.96C3.06 6.96 3.76667 7 4.7 7.08C5.3 6.76 5.81333 6.3 6.24 5.7C6.66667 5.1 6.88 4.44 6.88 3.72ZM12.9781 15V2.08C14.1248 1.98667 15.0981 1.94 15.8981 1.94C17.1248 1.94 18.1381 2.26 18.9381 2.9C19.7381 3.52667 20.1381 4.42667 20.1381 5.6C20.1381 6.38667 19.9115 7.11333 19.4581 7.78C19.0048 8.44667 18.4915 8.98667 17.9181 9.4C19.5048 11.5067 20.4848 12.7667 20.8581 13.18C21.6181 13.9667 22.4448 14.4133 23.3381 14.52L23.3181 15.14C22.5715 15.1267 21.9648 15.02 21.4981 14.82C21.0315 14.6067 20.5648 14.2533 20.0981 13.76C19.6448 13.2667 18.6381 11.94 17.0781 9.78C15.9981 9.78 14.9381 9.74667 13.8981 9.68V15H12.9781ZM16.5781 9.02C17.0981 9.02 17.6581 8.67333 18.2581 7.98C18.8581 7.28667 19.1581 6.48 19.1581 5.56C19.1581 4.64 18.8448 3.94 18.2181 3.46C17.5915 2.98 16.7781 2.74 15.7781 2.74C15.2448 2.74 14.6181 2.76667 13.8981 2.82V8.92C14.8581 8.98667 15.7515 9.02 16.5781 9.02ZM25.1461 15V2.02H26.0661V15H25.1461ZM30.8688 15V1.94H31.3088L39.8288 11.74C40.1354 12.0867 40.4154 12.4333 40.6688 12.78C40.9354 13.1133 41.0754 13.2867 41.0888 13.3C41.0621 12.98 41.0488 12.3533 41.0488 11.42V2.02H41.9688V15.08H41.5288L32.8488 5.12L31.7488 3.78C31.7754 4.04667 31.7888 4.67333 31.7888 5.66V15H30.8688ZM52.1872 2.64C50.7072 2.64 49.4605 3.20667 48.4472 4.34C47.4472 5.46 46.9472 6.84 46.9472 8.48C46.9472 10.12 47.5139 11.5133 48.6472 12.66C49.7805 13.7933 51.1139 14.36 52.6472 14.36C54.1939 14.36 55.3939 14.18 56.2472 13.82V8.48H57.1672V14.24C56.1272 14.88 54.6539 15.2 52.7472 15.2C50.8405 15.2 49.2339 14.5533 47.9272 13.26C46.6205 11.9667 45.9672 10.38 45.9672 8.5C45.9672 6.60667 46.5539 5.02 47.7272 3.74C48.9139 2.46 50.4405 1.82 52.3072 1.82C53.8139 1.82 55.2872 2.05333 56.7272 2.52L56.4872 3.28C55.1005 2.85333 53.6672 2.64 52.1872 2.64ZM71.0598 2.84H66.6598V2.02H76.3598V2.84H71.9598V15H71.0598V2.84ZM89.0119 15V8.44H79.9919V15H79.0719V2.02H79.9919V7.62H89.0119V2.02H89.9319V15H89.0119ZM94.7359 15V2.02H100.796V2.82H95.6559V7.54H100.296V8.32H95.6559V14.16H100.996V15H94.7359ZM181.786 2.08C182.733 2 183.706 1.96 184.706 1.96C185.706 1.96 186.56 2.2 187.266 2.68C187.986 3.16 188.346 3.86 188.346 4.78C188.346 5.47333 188.16 6.11333 187.786 6.7C187.413 7.28667 186.96 7.73333 186.426 8.04C187.293 8.29333 188.013 8.74667 188.586 9.4C189.16 10.0533 189.446 10.7933 189.446 11.62C189.446 12.7667 189.08 13.6333 188.346 14.22C187.626 14.8067 186.606 15.1 185.286 15.1C183.966 15.1 182.8 15.0533 181.786 14.96V2.08ZM183.606 8.44L182.706 8.46V14.2C183.28 14.2533 184.206 14.28 185.486 14.28C186.353 14.28 187.066 14.04 187.626 13.56C188.2 13.0667 188.486 12.4533 188.486 11.72C188.486 10.9733 188.2 10.3267 187.626 9.78C187.066 9.22 186.333 8.82667 185.426 8.6C184.96 8.49333 184.353 8.44 183.606 8.44ZM187.446 4.76C187.446 4.10667 187.173 3.60667 186.626 3.26C186.08 2.9 185.426 2.72 184.666 2.72C183.906 2.72 183.253 2.74 182.706 2.78V7.68C183.866 7.68 184.793 7.71333 185.486 7.78C186.006 7.5 186.46 7.09333 186.846 6.56C187.246 6.01333 187.446 5.41333 187.446 4.76ZM193.252 15V2.02H194.172V14.16H200.132V15H193.252ZM207.8 15.2C205.947 15.2 204.393 14.5533 203.14 13.26C201.887 11.9667 201.26 10.3867 201.26 8.52C201.26 6.64 201.887 5.05333 203.14 3.76C204.393 2.46667 205.947 1.82 207.8 1.82C209.653 1.82 211.207 2.46667 212.46 3.76C213.713 5.05333 214.34 6.64 214.34 8.52C214.34 10.3867 213.713 11.9667 212.46 13.26C211.207 14.5533 209.653 15.2 207.8 15.2ZM207.8 2.64C206.2 2.64 204.867 3.20667 203.8 4.34C202.747 5.47333 202.22 6.86667 202.22 8.52C202.22 10.16 202.747 11.5467 203.8 12.68C204.867 13.8 206.2 14.36 207.8 14.36C209.413 14.36 210.747 13.8 211.8 12.68C212.853 11.5467 213.38 10.16 213.38 8.52C213.38 6.86667 212.853 5.47333 211.8 4.34C210.747 3.20667 209.413 2.64 207.8 2.64ZM228.449 14.36C227.449 14.92 226.056 15.2 224.269 15.2C222.496 15.2 220.929 14.56 219.569 13.28C218.223 12 217.549 10.4133 217.549 8.52C217.549 6.61333 218.136 5.02 219.309 3.74C220.496 2.46 222.023 1.82 223.889 1.82C225.396 1.82 226.869 2.05333 228.309 2.52L228.069 3.28C226.683 2.85333 225.249 2.64 223.769 2.64C222.289 2.64 221.043 3.20667 220.029 4.34C219.029 5.46 218.529 6.84 218.529 8.48C218.529 10.1067 219.109 11.4933 220.269 12.64C221.443 13.7867 222.796 14.36 224.329 14.36C225.863 14.36 227.136 14.1467 228.149 13.72L228.449 14.36ZM239.608 2.02L234.068 8.28C236.255 10.9333 237.748 12.6133 238.548 13.32C239.361 14.0267 240.168 14.4267 240.968 14.52L240.948 15.14C240.201 15.1267 239.595 15.02 239.128 14.82C238.661 14.6067 238.248 14.3267 237.888 13.98C237.528 13.6333 236.755 12.7867 235.568 11.44C234.395 10.08 233.515 9.04 232.928 8.32L238.508 2.02H239.608ZM232.648 2.02V15H231.728V2.02H232.648ZM256.003 15.2C254.15 15.2 252.597 14.5533 251.343 13.26C250.09 11.9667 249.463 10.3867 249.463 8.52C249.463 6.64 250.09 5.05333 251.343 3.76C252.597 2.46667 254.15 1.82 256.003 1.82C257.857 1.82 259.41 2.46667 260.663 3.76C261.917 5.05333 262.543 6.64 262.543 8.52C262.543 10.3867 261.917 11.9667 260.663 13.26C259.41 14.5533 257.857 15.2 256.003 15.2ZM256.003 2.64C254.403 2.64 253.07 3.20667 252.003 4.34C250.95 5.47333 250.423 6.86667 250.423 8.52C250.423 10.16 250.95 11.5467 252.003 12.68C253.07 13.8 254.403 14.36 256.003 14.36C257.617 14.36 258.95 13.8 260.003 12.68C261.057 11.5467 261.583 10.16 261.583 8.52C261.583 6.86667 261.057 5.47333 260.003 4.34C258.95 3.20667 257.617 2.64 256.003 2.64ZM275.792 13.66C274.912 14.6867 273.572 15.2 271.772 15.2C269.972 15.2 268.632 14.6867 267.752 13.66C266.872 12.6333 266.432 11.2133 266.432 9.4V2.02H267.352V9.4C267.352 12.72 268.826 14.38 271.772 14.38C274.719 14.38 276.192 12.72 276.192 9.4V2.02H277.112V9.4C277.112 11.2133 276.672 12.6333 275.792 13.66ZM284.107 2.84H279.707V2.02H289.407V2.84H285.007V15H284.107V2.84ZM292.099 15.06C291.979 14.94 291.919 14.7867 291.919 14.6C291.919 14.4133 291.979 14.26 292.099 14.14C292.219 14.02 292.372 13.96 292.559 13.96C292.745 13.96 292.899 14.02 293.019 14.14C293.139 14.26 293.199 14.4133 293.199 14.6C293.199 14.7867 293.139 14.94 293.019 15.06C292.899 15.18 292.745 15.24 292.559 15.24C292.372 15.24 292.219 15.18 292.099 15.06ZM292.199 12L292.099 2H293.019L292.919 12H292.199Z" fill="#E0CF73"/>
<path d="M117.304 2.64C115.824 2.64 114.578 3.20667 113.564 4.34C112.564 5.46 112.064 6.84 112.064 8.48C112.064 10.12 112.631 11.5133 113.764 12.66C114.898 13.7933 116.231 14.36 117.764 14.36C119.311 14.36 120.511 14.18 121.364 13.82V8.48H122.284V14.24C121.244 14.88 119.771 15.2 117.864 15.2C115.958 15.2 114.351 14.5533 113.044 13.26C111.738 11.9667 111.084 10.38 111.084 8.5C111.084 6.60667 111.671 5.02 112.844 3.74C114.031 2.46 115.558 1.82 117.424 1.82C118.931 1.82 120.404 2.05333 121.844 2.52L121.604 3.28C120.218 2.85333 118.784 2.64 117.304 2.64ZM126.65 15V2.08C127.797 1.98667 128.77 1.94 129.57 1.94C130.797 1.94 131.81 2.26 132.61 2.9C133.41 3.52667 133.81 4.42667 133.81 5.6C133.81 6.38667 133.583 7.11333 133.13 7.78C132.677 8.44667 132.163 8.98667 131.59 9.4C133.177 11.5067 134.157 12.7667 134.53 13.18C135.29 13.9667 136.117 14.4133 137.01 14.52L136.99 15.14C136.243 15.1267 135.637 15.02 135.17 14.82C134.703 14.6067 134.237 14.2533 133.77 13.76C133.317 13.2667 132.31 11.94 130.75 9.78C129.67 9.78 128.61 9.74667 127.57 9.68V15H126.65ZM130.25 9.02C130.77 9.02 131.33 8.67333 131.93 7.98C132.53 7.28667 132.83 6.48 132.83 5.56C132.83 4.64 132.517 3.94 131.89 3.46C131.263 2.98 130.45 2.74 129.45 2.74C128.917 2.74 128.29 2.76667 127.57 2.82V8.92C128.53 8.98667 129.423 9.02 130.25 9.02ZM138.818 15V2.02H144.878V2.82H139.738V7.54H144.378V8.32H139.738V14.16H145.078V15H138.818ZM148.759 15V2.02H154.819V2.82H149.679V7.54H154.319V8.32H149.679V14.16H155.019V15H148.759ZM158.701 15V1.94H159.141L167.661 11.74C167.967 12.0867 168.247 12.4333 168.501 12.78C168.767 13.1133 168.907 13.2867 168.921 13.3C168.894 12.98 168.881 12.3533 168.881 11.42V2.02H169.801V15.08H169.361L160.681 5.12L159.581 3.78C159.607 4.04667 159.621 4.67333 159.621 5.66V15H158.701Z" fill="#73E098"/>
</svg>
